# xmcd
# 
# Track frame offsets:
#     182
#     21957
#     41135
#     58687
#     78815
#     97162
#     116085
#     135497
#     151197
#     174657
# 
# Disc length: 2653
# 
# Revision: 6
# Processed by: cddbd v1.5.2PL0 Copyright (c) Steve Scherf et al.
# Submitted via: fre:ac v1.0.27
# 
DISCID=7f0a5b0a
DTITLE=Lucio Battisti - Una giornata uggiosa
DYEAR=1980
DGENRE=Pop
TTITLE0=Il monolocale
TTITLE1=Arrivederci a questa sera
TTITLE2=Gelosa cara
TTITLE3=Orgoglio e dignità
TTITLE4=Una vita viva
TTITLE5=Amore mio di provincia
TTITLE6=Questo amore
TTITLE7=Perchè non sei una mela
TTITLE8=Una giornata uggiosa
TTITLE9=Con il nastro rosa
EXTD=YEAR: 1980 ID3G: 13
EXTT0=
EXTT1=
EXTT2=
EXTT3=
EXTT4=
EXTT5=
EXTT6=
EXTT7=
EXTT8=
EXTT9=
PLAYORDER=
